<svg class="icon" xmlns="http://www.w3.org/2000/svg" viewBox="0 0 64 64"><path d="M22.4 6.4v16h-16v-16h16M25.6 0H3.2C1.6 0 0 1.6 0 3.2v22.4c0 1.6 1.6 3.2 3.2 3.2h22.4c1.6 0 3.2-1.6 3.2-3.2V3.2c0-1.6-1.6-3.2-3.2-3.2zM57.6 6.4v16h-16v-16h16M60.8 0H38.4c-1.6 0-3.2 1.6-3.2 3.2v22.4c0 1.6 1.6 3.2 3.2 3.2h22.4c1.6 0 3.2-1.6 3.2-3.2V3.2C64 1.6 62.4 0 60.8 0zM22.4 41.6v16h-16v-16h16m3.2-6.4H3.2c-1.6 0-3.2 1.6-3.2 3.2v22.4C0 62.4 1.6 64 3.2 64h22.4c1.6 0 3.2-1.6 3.2-3.2V38.4c0-1.6-1.6-3.2-3.2-3.2zM57.6 41.6v16h-16v-16h16m3.2-6.4H38.4c-1.6 0-3.2 1.6-3.2 3.2v22.4c0 1.6 1.6 3.2 3.2 3.2h22.4c1.6 0 3.2-1.6 3.2-3.2V38.4c0-1.6-1.6-3.2-3.2-3.2z"/></svg>