<?xml version="1.0" standalone="no"?>
<!DOCTYPE svg PUBLIC "-//W3C//DTD SVG 20010904//EN"
 "http://www.w3.org/TR/2001/REC-SVG-20010904/DTD/svg10.dtd">
<svg version="1.0" xmlns="http://www.w3.org/2000/svg"
 width="224.000000pt" height="225.000000pt" viewBox="0 0 224.000000 225.000000"
 preserveAspectRatio="xMidYMid meet">

<g transform="translate(0.000000,225.000000) scale(0.100000,-0.100000)"
fill="#000000" stroke="none">
<path d="M901 2230 c-257 -56 -476 -187 -641 -382 -106 -126 -171 -251 -225
-433 -33 -110 -45 -332 -25 -466 49 -336 273 -653 580 -817 200 -108 437 -151
675 -124 388 45 740 316 893 687 67 162 77 222 76 435 0 183 -2 200 -28 284
-67 222 -155 369 -305 516 -109 106 -223 182 -354 236 -141 57 -223 74 -396
79 -133 4 -170 2 -250 -15z m294 -120 c153 -12 244 -38 375 -106 189 -98 345
-255 434 -438 62 -126 84 -201 98 -332 20 -197 -15 -392 -102 -565 l-32 -61
-31 29 c-71 66 -180 127 -360 199 l-108 44 -57 -47 c-31 -25 -86 -60 -122 -77
-60 -29 -73 -31 -170 -31 -97 0 -110 2 -170 31 -36 17 -91 52 -122 77 l-57 47
-108 -44 c-180 -72 -289 -133 -360 -199 l-33 -31 -40 86 c-22 47 -52 130 -67
184 -24 89 -27 115 -27 254 1 171 14 239 75 385 129 311 451 555 783 594 39 5
73 9 76 9 3 1 59 -3 125 -8z"/>
<path d="M1055 1848 c-165 -22 -315 -161 -360 -333 -68 -263 110 -613 346
-679 119 -34 228 2 334 109 104 106 173 260 182 410 19 304 -213 532 -502 493z"/>
</g>
</svg>
