<?xml version="1.0" standalone="no"?>
<!DOCTYPE svg PUBLIC "-//W3C//DTD SVG 20010904//EN"
 "http://www.w3.org/TR/2001/REC-SVG-20010904/DTD/svg10.dtd">
<svg version="1.0" xmlns="http://www.w3.org/2000/svg"
 width="64.000000pt" height="64.000000pt" viewBox="0 0 64.000000 64.000000"
 preserveAspectRatio="xMidYMid meet">

<g transform="translate(0.000000,64.000000) scale(0.100000,-0.100000)"
fill="#000000" stroke="none">
<path d="M295 616 c-38 -17 -80 -62 -95 -100 -15 -41 -4 -45 13 -5 45 105 181
139 264 66 92 -81 79 -218 -27 -274 -94 -50 -194 -12 -240 92 -12 25 -19 33
-19 21 -1 -11 10 -39 24 -62 15 -25 20 -41 13 -39 -8 3 -30 -15 -51 -40 -35
-42 -41 -45 -86 -45 -57 0 -81 -21 -81 -68 0 -42 31 -72 73 -72 21 0 41 -8 52
-20 10 -11 26 -20 35 -20 10 0 20 -9 23 -20 7 -26 39 -26 62 0 17 18 31 20
177 20 148 0 159 1 179 21 18 18 21 30 17 74 -5 61 -40 115 -94 147 l-34 20
25 42 c74 126 -13 277 -158 276 -23 -1 -55 -7 -72 -14z m-31 -363 c65 -89 65
-84 13 -163 -26 -38 -51 -70 -56 -70 -11 0 -21 25 -21 56 0 23 -3 24 -61 24
-104 0 -152 47 -99 100 16 16 33 20 90 20 67 0 70 1 70 24 0 31 10 56 21 56 5
0 24 -21 43 -47z m106 15 c26 0 61 7 78 16 52 27 117 -11 153 -89 25 -54 24
-87 -4 -114 -23 -20 -31 -21 -170 -19 l-146 3 30 47 31 48 -41 63 c-22 35 -41
67 -41 70 0 4 14 0 32 -9 17 -9 52 -16 78 -16z m-184 -35 c-10 -10 -19 5 -10
18 6 11 8 11 12 0 2 -7 1 -15 -2 -18z m4 -158 c0 -19 -11 -19 -36 0 -18 14
-18 14 9 15 17 0 27 -5 27 -15z"/>
</g>
</svg>
